<?xml version="1.0" encoding="UTF-8" standalone="no"?><!DOCTYPE svg PUBLIC "-//W3C//DTD SVG 1.1//EN" "http://www.w3.org/Graphics/SVG/1.1/DTD/svg11.dtd"><svg width="100%" height="100%" viewBox="0 0 2000 2000" version="1.1" xmlns="http://www.w3.org/2000/svg" xmlns:xlink="http://www.w3.org/1999/xlink" xml:space="preserve" xmlns:serif="http://www.serif.com/" style="fill-rule:evenodd;clip-rule:evenodd;stroke-linejoin:round;stroke-miterlimit:2;"><g><g><path d="M576.719,796.719c25.937,-4.375 48.906,-14.688 63.75,-33.438c18.75,-24.062 10,-47.187 -5.469,-69.844c-56.875,-82.656 -100.781,-173.593 -131.875,-268.906c-14.844,-45.781 -29.688,-89.531 -78.906,-107.969c-32.969,-12.187 -69.063,-6.25 -100.938,6.407c-37.656,14.687 -74.687,31.093 -113.906,40.781c-39.375,9.844 -80.938,12.344 -121.406,15.312c-20.157,1.563 -38.907,-3.906 -57.344,7.969c-15.625,10 -21.406,26.563 -14.531,43.906c23.75,60.157 98.281,77.032 155.468,77.032c7.188,-0 14.219,-0 21.094,2.812c11.406,4.844 8.438,11.563 1.094,19.531c-5.938,6.407 -15.313,7.657 -23.438,9.532c-39.375,8.437 9.532,47.343 23.75,53.281c30.313,12.812 64.219,15.312 96.719,15.937c5,0 12.656,-0.625 16.719,3.438c13.906,13.906 -22.5,22.812 -27.969,28.281c-16.719,16.875 3.438,33.125 17.969,41.563c29.531,16.875 60.625,17.5 93.437,14.531c10.469,-0.938 37.5,1.719 26.094,17.656c-20.469,28.75 -18.125,48.125 15.469,62.656c35.469,15.469 95.156,27.657 144.219,19.532Z" style="fill:#fff;"/><path d="M189.375,387.187c73.125,-8.593 164.687,-52.656 213.906,-34.687c49.219,17.969 52.656,61.562 75,110.937c22.344,49.219 45.938,114.219 45.938,114.219c-0,0 -91.875,-165.625 -129.844,-190.312c-44.844,-29.063 -136.563,5.625 -203.75,3.281c-0.156,-0.156 -20.313,-1.25 -1.25,-3.438Z" style="fill:#40c0e7;"/><g><clipPath id="_clip1"><path d="M576.719,796.719c25.937,-4.375 48.906,-14.688 63.75,-33.438c18.75,-24.062 10,-47.187 -5.469,-69.844c-56.875,-82.656 -100.781,-173.593 -131.875,-268.906c-14.844,-45.781 -29.688,-89.531 -78.906,-107.969c-32.969,-12.187 -69.063,-6.25 -100.938,6.407c-37.656,14.687 -74.687,31.093 -113.906,40.781c-39.375,9.844 -80.938,12.344 -121.406,15.312c-20.157,1.563 -38.907,-3.906 -57.344,7.969c-15.625,10 -21.406,26.563 -14.531,43.906c23.75,60.157 98.281,77.032 155.468,77.032c7.188,-0 14.219,-0 21.094,2.812c11.406,4.844 8.438,11.563 1.094,19.531c-5.938,6.407 -15.313,7.657 -23.438,9.532c-39.375,8.437 9.532,47.343 23.75,53.281c30.313,12.812 64.219,15.312 96.719,15.937c5,0 12.656,-0.625 16.719,3.438c13.906,13.906 -22.5,22.812 -27.969,28.281c-16.719,16.875 3.438,33.125 17.969,41.563c29.531,16.875 60.625,17.5 93.437,14.531c10.469,-0.938 37.5,1.719 26.094,17.656c-20.469,28.75 -18.125,48.125 15.469,62.656c35.469,15.469 95.156,27.657 144.219,19.532Z"/></clipPath><g clip-path="url(#_clip1)"><path d="M20.156,389.375c0,-0 -0.937,36.875 32.5,55.937c148.906,85.157 246.406,4.532 271.094,10c17.187,3.907 16.719,15.625 16.719,15.625c-0,0 -89.532,40.313 -162.344,39.219c-72.813,-1.094 -145.625,-1.094 -160.156,-39.219c-14.532,-38.125 -23.438,-63.906 -23.438,-63.906l25.625,-17.656Z" style="fill:#40c0e7;"/></g><clipPath id="_clip2"><path d="M576.719,796.719c25.937,-4.375 48.906,-14.688 63.75,-33.438c18.75,-24.062 10,-47.187 -5.469,-69.844c-56.875,-82.656 -100.781,-173.593 -131.875,-268.906c-14.844,-45.781 -29.688,-89.531 -78.906,-107.969c-32.969,-12.187 -69.063,-6.25 -100.938,6.407c-37.656,14.687 -74.687,31.093 -113.906,40.781c-39.375,9.844 -80.938,12.344 -121.406,15.312c-20.157,1.563 -38.907,-3.906 -57.344,7.969c-15.625,10 -21.406,26.563 -14.531,43.906c23.75,60.157 98.281,77.032 155.468,77.032c7.188,-0 14.219,-0 21.094,2.812c11.406,4.844 8.438,11.563 1.094,19.531c-5.938,6.407 -15.313,7.657 -23.438,9.532c-39.375,8.437 9.532,47.343 23.75,53.281c30.313,12.812 64.219,15.312 96.719,15.937c5,0 12.656,-0.625 16.719,3.438c13.906,13.906 -22.5,22.812 -27.969,28.281c-16.719,16.875 3.438,33.125 17.969,41.563c29.531,16.875 60.625,17.5 93.437,14.531c10.469,-0.938 37.5,1.719 26.094,17.656c-20.469,28.75 -18.125,48.125 15.469,62.656c35.469,15.469 95.156,27.657 144.219,19.532Z"/></clipPath><g clip-path="url(#_clip2)"><path d="M162.5,536.094c-0,3.437 -8.906,10 5.625,20.156c14.531,10 37.344,20.781 48.125,23.437c40.312,10 91.875,6.719 112.031,6.719c20.313,0 50.469,-13.437 66.094,-2.187c6.406,4.531 5.625,11.25 5.625,11.25c-0,-0 -43.75,15.625 -135.469,15.625c-92.656,-0 -134.375,-34.688 -138.906,-43.594c-4.531,-8.906 19.062,-34.688 19.062,-34.688l17.813,3.282Z" style="fill:#40c0e7;"/></g><clipPath id="_clip3"><path d="M576.719,796.719c25.937,-4.375 48.906,-14.688 63.75,-33.438c18.75,-24.062 10,-47.187 -5.469,-69.844c-56.875,-82.656 -100.781,-173.593 -131.875,-268.906c-14.844,-45.781 -29.688,-89.531 -78.906,-107.969c-32.969,-12.187 -69.063,-6.25 -100.938,6.407c-37.656,14.687 -74.687,31.093 -113.906,40.781c-39.375,9.844 -80.938,12.344 -121.406,15.312c-20.157,1.563 -38.907,-3.906 -57.344,7.969c-15.625,10 -21.406,26.563 -14.531,43.906c23.75,60.157 98.281,77.032 155.468,77.032c7.188,-0 14.219,-0 21.094,2.812c11.406,4.844 8.438,11.563 1.094,19.531c-5.938,6.407 -15.313,7.657 -23.438,9.532c-39.375,8.437 9.532,47.343 23.75,53.281c30.313,12.812 64.219,15.312 96.719,15.937c5,0 12.656,-0.625 16.719,3.438c13.906,13.906 -22.5,22.812 -27.969,28.281c-16.719,16.875 3.438,33.125 17.969,41.563c29.531,16.875 60.625,17.5 93.437,14.531c10.469,-0.938 37.5,1.719 26.094,17.656c-20.469,28.75 -18.125,48.125 15.469,62.656c35.469,15.469 95.156,27.657 144.219,19.532Z"/></clipPath><g clip-path="url(#_clip3)"><path d="M272.187,633.594c-5.156,-8.594 12.032,20.625 26.875,29.062c39.219,22.344 57.032,18.125 87.344,16.719c26.875,-1.094 48.125,-14.531 63.906,-12.344c14.844,2.188 19.063,12.344 19.063,12.344c-0,-0 -47.031,21.25 -68.281,17.969c-21.25,-3.438 -110.782,15.625 -116.407,8.906c-5.625,-6.719 -38.125,-47.031 -38.125,-47.031l25.625,-25.625Z" style="fill:#40c0e7;"/></g><clipPath id="_clip4"><path d="M576.719,796.719c25.937,-4.375 48.906,-14.688 63.75,-33.438c18.75,-24.062 10,-47.187 -5.469,-69.844c-56.875,-82.656 -100.781,-173.593 -131.875,-268.906c-14.844,-45.781 -29.688,-89.531 -78.906,-107.969c-32.969,-12.187 -69.063,-6.25 -100.938,6.407c-37.656,14.687 -74.687,31.093 -113.906,40.781c-39.375,9.844 -80.938,12.344 -121.406,15.312c-20.157,1.563 -38.907,-3.906 -57.344,7.969c-15.625,10 -21.406,26.563 -14.531,43.906c23.75,60.157 98.281,77.032 155.468,77.032c7.188,-0 14.219,-0 21.094,2.812c11.406,4.844 8.438,11.563 1.094,19.531c-5.938,6.407 -15.313,7.657 -23.438,9.532c-39.375,8.437 9.532,47.343 23.75,53.281c30.313,12.812 64.219,15.312 96.719,15.937c5,0 12.656,-0.625 16.719,3.438c13.906,13.906 -22.5,22.812 -27.969,28.281c-16.719,16.875 3.438,33.125 17.969,41.563c29.531,16.875 60.625,17.5 93.437,14.531c10.469,-0.938 37.5,1.719 26.094,17.656c-20.469,28.75 -18.125,48.125 15.469,62.656c35.469,15.469 95.156,27.657 144.219,19.532Z"/></clipPath><g clip-path="url(#_clip4)"><path d="M392.031,745.469c10.156,6.718 37.031,10.156 48.125,8.906c15.938,-1.563 40.313,-17.969 40.313,-17.969l1.093,12.344l-25.781,26.875l-39.219,16.875l-35.781,-27.969l11.25,-19.062Z" style="fill:#40c0e7;"/></g></g><path d="M1121.72,903.906c-9.219,32.5 -35.625,65.938 -53.75,94.219c-14.063,21.875 -33.125,37.812 -48.438,58.281c-14.375,19.375 -40.625,42.813 -41.25,66.875c-1.25,50.156 4.688,98.438 4.531,147.969c-0.156,17.812 2.188,35.937 4.375,53.906c1.719,15.156 10.157,32.188 9.688,48.438c18.906,2.968 27.5,-2.657 41.562,-15.625c20,-18.438 38.125,-38.75 56.25,-58.594c23.438,-25.938 38.907,-45.781 52.657,-77.5c11.093,-25.781 16.718,-41.563 14.687,-70.625c-2.031,-28.594 -4.531,-56.719 -4.531,-86.094l-35.781,-161.25Z" style="fill:#fff;fill-rule:nonzero;"/><path d="M167.656,1092.03l582.344,219.531l-27.031,322.5l-618.125,-228.437l62.812,-313.594Z" style="fill:#bdcf46;fill-rule:nonzero;"/><g><g><g><path id="SVGID_3_" d="M791.875,422.187c-0,0 -191.094,388.282 -585.313,639.219l534.532,209.063c-0,-0 301.718,-197.188 490.781,-732.5l-440,-115.782Z" style="fill:#bdcf46;"/></g><path d="M791.875,422.187l440,115.782c-189.063,535.312 -490.781,732.5 -490.781,732.5l-534.532,-209.063c394.063,-250.937 585.313,-639.219 585.313,-639.219m-0,-71.718c-26.875,-0 -51.875,15 -64.219,40c-1.875,3.75 -188.125,374.062 -559.531,610.468c-22.813,14.532 -35.469,40.469 -32.813,67.344c2.657,26.875 20.157,50 45.157,59.844l534.531,209.062c8.437,3.282 17.344,5 26.094,5c13.75,0 27.343,-3.906 39.218,-11.718c13.125,-8.594 324.219,-216.719 519.219,-768.594c6.719,-18.906 5.156,-39.688 -4.219,-57.5c-9.375,-17.656 -25.781,-30.625 -45.156,-35.781l-439.844,-115.782c-6.25,-1.562 -12.5,-2.343 -18.437,-2.343Z" style="fill:#757f3f;fill-rule:nonzero;"/></g><path d="M717.812,1337.97c2.657,4.062 4.532,8.437 4.844,14.218c0.625,11.25 3.281,24.219 0,35c-1.719,5 2.188,3.594 -3.594,6.25c-4.687,2.188 -12.812,-3.593 -17.187,-5.312c-6.875,-2.656 -13.75,-4.844 -20.625,-7.656c-12.813,-5.313 -25.781,-10.469 -38.594,-15.782c-53.125,-21.562 -106.094,-43.281 -159.219,-64.843c-56.25,-22.969 -112.656,-45.938 -168.906,-68.907c-26.562,-10.781 -52.969,-22.656 -80,-32.343c-34.062,-12.344 -50.937,-13.75 -43.281,-55c3.281,-17.657 0.625,-35.313 2.656,-53.282c1.719,-15.781 3.281,-21.718 15.781,-32.187c17.657,-14.688 34.688,-28.281 28.75,-53.906c-7.187,-31.875 -27.187,-23.438 -51.562,-13.125c-24.219,12.031 -77.188,29.843 -75.781,64.531c4.062,106.094 -19.375,201.406 -42.188,303.594c-14.375,63.125 35.938,85 84.688,111.25c102.187,55 213.593,102.812 320,149.062c62.5,27.344 127.031,52.031 193.906,66.406c74.531,16.094 131.875,-33.125 185.312,-77.187c68.907,-56.719 134.219,-116.875 193.125,-184.063c137.032,-156.093 236.719,-340.468 296.094,-539.375c1.406,-4.687 1.719,-9.687 1.25,-14.531c-5.312,-42.812 -10.625,-85.625 -15.781,-128.437c-6.25,-51.094 -12.656,-102.188 -18.906,-153.282c-1.875,-15.625 -2.188,-33.437 -6.25,-49.062c-0.469,-1.875 -1.094,-3.594 -1.563,-5.469c-3.906,-12.187 -13.906,-24.062 -28.594,-18.906c-17.187,5.937 -13.437,31.719 -17.343,46.094c-5,18.437 -10.469,36.406 -15,54.843c-9.375,38.282 -31.719,76.25 -49.844,110.938c-13.125,24.844 -26.719,47.031 -37.5,73.281c-8.281,20.313 -16.719,40.469 -25.469,60.625c-4.062,9.375 -12.812,19.375 -14.844,29.375c-2.187,10.156 2.188,23.906 3.438,34.219c7.656,59.844 20.312,118.906 24.062,179.219c1.719,27.968 4.532,61.25 -2.656,88.75c-13.594,51.875 -56.875,87.343 -86.406,129.687c-2.656,3.75 -37.344,36.406 -38.594,33.438c-6.25,-14.219 -3.75,-29.688 -2.344,-44.532c5.782,-62.812 1.563,-126.093 -1.718,-188.906c-0.625,-13.281 -0.625,-40.781 -18.125,-42.812c-10,-1.094 -16.719,-0.938 -25.157,4.843c-20.312,14.063 -34.531,35.782 -50.937,53.907c-22.344,24.687 -45.938,48.75 -71.406,70c-13.125,10.937 -25.782,22.187 -38.125,33.906c-17.032,12.969 -35.157,25 -54.219,34.531c-18.125,9.063 -52.813,8.438 -45.625,38.281c2.5,9.532 8.75,15.469 13.437,22.657Zm-37.031,257.656c-3.75,2.969 -8.75,4.531 -14.844,4.219c-10.468,-0.625 -17.968,-5.782 -27.656,-8.907c-30,-9.843 -59.531,-21.406 -88.906,-33.125c-53.594,-21.406 -106.875,-44.062 -159.844,-67.031c-2.656,-1.094 -5.156,-2.187 -7.812,-3.281c-47.5,-20.469 -92.969,-41.719 -139.219,-65c-23.281,-11.719 -50.156,-19.844 -69.844,-37.813c-11.562,-10.625 -5.312,-36.562 10.156,-41.406c22.813,-7.031 56.407,18.438 75.625,28.125c72.657,36.25 149.219,64.063 224.375,94.688c55.938,22.812 112.032,45.625 168.125,68.593c8.438,3.438 18.594,5 27.188,9.063c10.312,5 10.312,11.719 11.875,22.187c1.875,11.25 -1.094,23.282 -9.219,29.688Zm29.844,-100.781c-10,5.625 -23.438,-3.594 -33.594,-7.657c-21.406,-8.75 -42.969,-17.5 -64.375,-26.25c-59.062,-24.062 -118.125,-48.125 -177.187,-72.187c-50.782,-20.781 -101.875,-40.938 -152.344,-62.656c-23.281,-10 -108.125,-31.719 -105.156,-63.594c0.937,-10.938 3.125,-29.844 18.75,-22.5c19.062,8.906 38.437,16.719 57.968,24.687c52.657,21.563 105.625,43.125 158.282,64.532c58.437,23.75 116.718,47.656 175.156,71.406c39.687,16.094 79.219,34.375 119.531,48.75c17.813,6.25 18.281,30.937 6.25,43.125c-1.094,0.937 -2.031,1.719 -3.281,2.344Z" style="fill:#757f3f;fill-rule:nonzero;"/><g><path d="M448.281,840.312c2.344,-2.5 43.594,14.063 48.594,15.782c16.875,5.468 33.594,11.093 50.469,16.562c33.593,11.094 67.031,22.656 100.312,34.375c66.719,23.594 132.813,49.063 197.656,77.188c33.438,14.687 69.219,28.437 100.469,47.343c11.406,6.875 17.813,18.282 33.125,15.157c14.531,-2.969 24.219,-18.438 33.125,-28.907c12.188,-14.531 126.406,-168.125 127.656,-167.187c-30,-22.5 -63.125,-43.281 -96.406,-59.844c-29.687,-14.844 -59.844,-28.437 -90.469,-41.094c-58.125,-23.906 -117.5,-45 -178.125,-61.875c-21.562,-6.093 -144.375,-49.375 -162.187,-29.687c0.156,0.156 -164.063,182.187 -164.219,182.187Z" style="fill:#fff;"/><path d="M973.906,1083.44c-20.781,0 -34.062,-10.937 -42.031,-17.343c-1.406,-1.25 -2.813,-2.5 -4.531,-3.594c-22.969,-13.75 -49.844,-25.156 -75.625,-36.406l-20.625,-8.907c-58.438,-25.468 -122.188,-50.468 -195.313,-76.406c-32.969,-11.719 -66.25,-23.125 -99.531,-34.219l-50.313,-16.562c-1.406,-0.469 -4.687,-1.719 -9.218,-3.438c-5.782,-2.187 -22.188,-8.437 -29.532,-10.625c-8.125,-0.312 -16.093,-3.437 -22.812,-9.375c-14.531,-13.281 -15.625,-35.625 -2.656,-50.312l0.156,-0.156l164.062,-181.875c15.313,-17.032 38.282,-17.032 45.625,-17.032c33.75,0 86.25,15.157 137.969,31.563c6.563,2.031 11.719,3.75 14.688,4.531c58.75,16.406 118.437,37.031 182.031,63.281c32.187,13.282 63.437,27.5 92.969,42.188c33.125,16.719 66.718,37.344 97.656,60.312c11.25,5.938 19.219,17.969 19.219,31.719c-0,11.094 -5.157,21.094 -13.125,27.656c-10,12.657 -40.782,53.282 -63.907,84.063c-33.281,44.219 -54.062,71.719 -59.843,78.594l-4.063,5.156c-9.687,12.344 -24.375,30.937 -49.219,35.937c-3.75,0.782 -7.968,1.25 -12.031,1.25Zm-461.875,-260l46.719,15.313c33.75,11.25 67.5,22.812 101.094,34.687c74.531,26.407 139.843,52.032 199.843,78.125l20.157,8.594c28.125,12.031 57.343,24.531 84.531,40.938c3.594,2.187 6.875,4.531 10,6.875c1.562,-2.032 3.437,-4.532 5,-6.407l5.312,-6.718c4.844,-5.782 32.969,-42.969 57.657,-75.782c19.843,-26.406 34.687,-45.937 46.093,-60.625c-20.156,-13.125 -40.625,-25.156 -61.093,-35.468c-27.969,-13.907 -57.657,-27.5 -88.125,-40c-60.938,-25.157 -117.813,-44.844 -174.063,-60.469c-3.437,-1.094 -9.375,-2.813 -17.031,-5.313c-26.094,-8.281 -86.875,-27.5 -115,-28.125c-19.375,21.407 -80.781,89.532 -121.094,134.375Z" style="fill:#757f3f;fill-rule:nonzero;"/></g></g><path d="M939.219,1205c-1.094,1.406 -2.188,2.656 -3.438,3.906c-27.187,27.656 -53.125,56.563 -80.312,84.219c-10.469,10.625 -20.782,21.25 -31.875,31.406c-7.188,6.406 -18.75,11.25 -24.219,19.219c-4.063,5.937 -2.813,14.062 -3.438,20.937c-5.156,53.907 -12.031,107.657 -16.718,161.407c-0.938,10.312 0.625,21.093 -2.5,31.093c-2.969,9.219 -6.25,21.407 6.718,16.407c14.844,-5.625 26.25,-18.282 37.344,-29.219c23.594,-22.969 49.219,-43.906 72.813,-67.031c15.625,-15.469 50.468,-44.219 55.781,-66.719c2.031,-8.906 1.25,-19.688 2.656,-28.75c0.938,-7.188 0.469,-15 1.406,-22.188c2.032,-17.187 2.344,-34.375 2.344,-51.718c0,-20.157 1.563,-40.313 1.25,-60.625c0,-8.75 0.313,-17.188 0.469,-25.782c0.156,-10.156 -4.063,-20.156 -4.063,-30.468c-6.093,3.125 -10,8.906 -14.218,13.906Z" style="fill:#bdcf46;"/><path d="M1278.75,757.187c-2.344,-32.5 -6.875,-65.937 -15.313,-95.156c-4.531,-15.625 -11.875,13.438 -13.593,17.5c-3.907,9.219 -8.125,18.281 -11.875,27.344c-16.407,39.687 -39.532,75.937 -54.532,116.406c-4.687,12.5 -13.593,24.531 -16.875,37.344c-3.906,14.531 5.782,26.094 7.5,40.156c3.594,28.125 9.532,55.781 13.438,83.906c3.437,24.219 4.531,48.907 7.031,73.282c0.781,8.281 0.781,16.718 1.719,25c1.25,9.843 2.656,20.156 4.844,29.531c6.562,2.344 14.062,-15.625 16.562,-20.313c11.719,-22.968 29.688,-41.562 40,-65.468c10.781,-25.313 16.406,-53.125 17.813,-80.469c2.5,-45.938 6.25,-92.031 5.468,-137.969c-0.156,-16.25 -0.781,-33.437 -2.187,-51.094Z" style="fill:#bdcf46;"/><path d="M774.687,1449.38l-15,-32.5c21.407,-9.844 39.063,-26.719 57.657,-44.531c4.687,-4.532 9.531,-9.219 14.531,-13.75c8.125,-7.5 16.562,-14.844 25,-22.188c15.781,-13.75 30.625,-26.719 44.531,-41.094c5.156,-5.312 10.313,-10.468 15.781,-15.625c18.907,-18.437 36.563,-35.937 48.282,-58.125l31.718,16.563c-14.218,27.031 -34.843,47.344 -54.843,67.031c-5.157,5 -10.157,10 -15.157,15.156c-15,15.313 -31.093,29.532 -46.562,42.969c-8.125,7.188 -16.406,14.375 -24.375,21.563c-4.688,4.218 -9.375,8.75 -14.063,13.125c-20.156,19.375 -40.625,39.062 -67.5,51.406Z" style="fill:#757f3f;fill-rule:nonzero;"/><path d="M757.344,1556.88l-9.688,-6.094l8.125,-17.344l-8.281,-12.812c11.094,-7.188 22.969,-16.094 34.219,-25.625c5.156,-4.531 10.625,-8.75 16.093,-12.969c8.75,-6.875 17.657,-13.75 25.469,-21.719c13.125,-13.437 26.719,-26.25 40,-38.906l17.813,-16.875c12.968,-12.656 27.812,-28.125 42.5,-45l4.531,-5.156c5.312,-5.938 10.625,-11.719 15,-18.125c2.344,-3.438 5.469,-6.719 8.906,-10c1.719,-1.719 4.219,-4.219 4.844,-5.313l32.812,14.375c-3.125,7.032 -8.281,12.344 -12.5,16.407c-1.562,1.562 -3.281,3.125 -4.531,4.843c-5.312,7.657 -11.406,14.532 -17.812,21.719l-4.375,4.844c-15.313,17.5 -30.782,33.75 -44.532,47.031l-17.968,17.031c-13.125,12.5 -26.407,25 -39.219,38.125c-9.219,9.219 -19.219,17.188 -28.906,24.688c-5,3.906 -10.157,7.969 -15,12.031c-12.344,10.625 -25.469,20.469 -37.969,28.438l-9.531,6.406Z" style="fill:#757f3f;fill-rule:nonzero;"/><path d="M1160,971.094l-23.438,-27.188c17.969,-15.312 30.313,-36.406 43.282,-58.594c3.281,-5.781 6.718,-11.562 10.156,-17.187c5.781,-9.531 11.875,-18.906 17.969,-28.125c11.406,-17.5 22.031,-34.063 31.562,-51.719c3.594,-6.406 7.188,-12.969 10.781,-19.375c12.969,-22.969 25.313,-44.687 30.469,-69.062l35,7.343c-6.25,29.844 -20.469,55.157 -34.219,79.532c-3.593,6.25 -7.031,12.343 -10.468,18.593c-10.157,18.907 -21.719,36.875 -32.969,54.219c-5.938,9.063 -11.875,18.125 -17.5,27.5c-3.438,5.469 -6.719,10.938 -9.844,16.563c-14.062,23.593 -28.437,48.125 -50.781,67.5Z" style="fill:#757f3f;fill-rule:nonzero;"/><path d="M1172.97,1079.22l-10.938,-3.282l2.969,-18.906l-11.563,-10c8.75,-10 17.657,-21.875 25.938,-34.062c3.75,-5.782 7.812,-11.25 11.875,-16.875c6.562,-9.063 13.281,-18.125 18.594,-27.813c9.062,-16.562 18.437,-32.5 27.812,-48.437l12.344,-21.407c9.062,-15.781 19.062,-34.687 28.594,-54.843l2.968,-6.094c3.438,-7.188 6.875,-14.219 9.375,-21.563c1.25,-3.906 3.438,-7.968 5.782,-12.031c1.093,-2.031 2.968,-5.312 3.125,-6.562l35.625,4.687c-1.094,7.656 -4.688,14.063 -7.5,19.219c-1.094,2.031 -2.344,4.062 -2.969,5.937c-3.125,8.75 -7.031,17.188 -11.25,25.782l-2.813,5.937c-10,21.094 -20.312,40.938 -30,57.5l-12.5,21.406c-9.218,15.625 -18.437,31.25 -27.187,47.5c-6.25,11.407 -13.75,21.719 -20.938,31.719c-3.906,5.156 -7.656,10.313 -11.093,15.625c-8.907,13.594 -19.063,26.563 -28.75,37.813l-7.5,8.75Z" style="fill:#757f3f;fill-rule:nonzero;"/><path d="M1255.62,972.812c-23.594,-16.25 -41.563,-36.875 -47.5,-62.031c-7.5,-32.187 11.562,-51.094 37.187,-66.25c93.75,-55.625 178.594,-125.156 252.657,-205c35.625,-38.281 70.156,-74.687 127.031,-70.312c38.125,2.968 70.781,25.312 96.562,52.343c30.313,31.719 59.375,64.688 93.594,92.188c34.375,27.656 74.219,49.062 112.656,70.469c19.219,10.781 40,13.75 52.969,33.906c10.781,17.031 8.906,35.937 -5.781,49.844c-50.781,48.593 -132.031,31.093 -188.438,5c-7.031,-3.282 -14.062,-6.563 -22.031,-6.719c-13.437,-0.313 -13.75,7.656 -10,18.75c2.969,9.062 11.563,14.531 18.906,20c34.844,26.25 -31.093,42.344 -47.812,41.719c-35.469,-1.094 -70,-14.219 -102.344,-28.438c-5.156,-2.187 -12.187,-6.406 -18.125,-4.219c-20,7.344 11.719,32.657 14.688,40.782c8.75,24.218 -18.438,31.093 -36.719,32.656c-36.875,3.125 -67.813,-10.469 -98.906,-28.281c-9.844,-5.625 -37.657,-15.313 -33.75,5.468c7.031,37.657 -4.063,55.782 -43.75,54.688c-42.188,-1.094 -106.563,-16.094 -151.094,-46.563Z" style="fill:#fff;"/><g><path d="M1384.53,773.906c0,0 132.5,-112.031 163.281,-139.219c30.782,-27.031 52.5,-36.25 74.219,-34.375c21.563,1.875 54.844,23.125 93.438,54.532c38.75,31.562 70.468,61.406 70.468,61.406c0,-0 -126.25,-87.344 -175,-80.156c-48.75,7.187 -85.781,41.562 -120.156,66.875c-34.375,25.312 -106.25,70.937 -106.25,70.937Z" style="fill:#40c0e7;"/><g><clipPath id="_clip5"><path d="M1255.62,972.812c-23.594,-16.25 -41.563,-36.875 -47.5,-62.031c-7.5,-32.187 11.562,-51.094 37.187,-66.25c93.75,-55.625 178.594,-125.156 252.657,-205c35.625,-38.281 70.156,-74.687 127.031,-70.312c38.125,2.968 70.781,25.312 96.562,52.343c30.313,31.719 59.375,64.688 93.594,92.188c34.375,27.656 74.219,49.062 112.656,70.469c19.219,10.781 40,13.75 52.969,33.906c10.781,17.031 8.906,35.937 -5.781,49.844c-50.781,48.593 -132.031,31.093 -188.438,5c-7.031,-3.282 -14.062,-6.563 -22.031,-6.719c-13.437,-0.313 -13.75,7.656 -10,18.75c2.969,9.062 11.563,14.531 18.906,20c34.844,26.25 -31.093,42.344 -47.812,41.719c-35.469,-1.094 -70,-14.219 -102.344,-28.438c-5.156,-2.187 -12.187,-6.406 -18.125,-4.219c-20,7.344 11.719,32.657 14.688,40.782c8.75,24.218 -18.438,31.093 -36.719,32.656c-36.875,3.125 -67.813,-10.469 -98.906,-28.281c-9.844,-5.625 -37.657,-15.313 -33.75,5.468c7.031,37.657 -4.063,55.782 -43.75,54.688c-42.188,-1.094 -106.563,-16.094 -151.094,-46.563Z"/></clipPath><g clip-path="url(#_clip5)"><path d="M1635.16,718.75c0,-0 13.438,-13.438 29.063,-6.719c15.625,6.719 87.031,91.094 150,116.406c91.875,37.032 153.437,30.313 178.125,-2.187c4.843,-6.406 -12.344,78.437 -12.344,78.437l-120.938,15.625l-85.156,-50.468c0.156,-0 -78.281,-36.875 -138.75,-151.094Z" style="fill:#40c0e7;"/></g><clipPath id="_clip6"><path d="M1255.62,972.812c-23.594,-16.25 -41.563,-36.875 -47.5,-62.031c-7.5,-32.187 11.562,-51.094 37.187,-66.25c93.75,-55.625 178.594,-125.156 252.657,-205c35.625,-38.281 70.156,-74.687 127.031,-70.312c38.125,2.968 70.781,25.312 96.562,52.343c30.313,31.719 59.375,64.688 93.594,92.188c34.375,27.656 74.219,49.062 112.656,70.469c19.219,10.781 40,13.75 52.969,33.906c10.781,17.031 8.906,35.937 -5.781,49.844c-50.781,48.593 -132.031,31.093 -188.438,5c-7.031,-3.282 -14.062,-6.563 -22.031,-6.719c-13.437,-0.313 -13.75,7.656 -10,18.75c2.969,9.062 11.563,14.531 18.906,20c34.844,26.25 -31.093,42.344 -47.812,41.719c-35.469,-1.094 -70,-14.219 -102.344,-28.438c-5.156,-2.187 -12.187,-6.406 -18.125,-4.219c-20,7.344 11.719,32.657 14.688,40.782c8.75,24.218 -18.438,31.093 -36.719,32.656c-36.875,3.125 -67.813,-10.469 -98.906,-28.281c-9.844,-5.625 -37.657,-15.313 -33.75,5.468c7.031,37.657 -4.063,55.782 -43.75,54.688c-42.188,-1.094 -106.563,-16.094 -151.094,-46.563Z"/></clipPath><g clip-path="url(#_clip6)"><path d="M1517.5,790.312c-0,0 19.062,-13.437 35.625,7.5c11.094,14.063 72.5,95 141.406,117.969c39.375,13.125 101.875,7.813 101.875,7.813l-46.562,43.906l-132.5,-47.188c-0.157,0 -81.875,-77.343 -99.844,-130Z" style="fill:#40c0e7;"/></g><clipPath id="_clip7"><path d="M1255.62,972.812c-23.594,-16.25 -41.563,-36.875 -47.5,-62.031c-7.5,-32.187 11.562,-51.094 37.187,-66.25c93.75,-55.625 178.594,-125.156 252.657,-205c35.625,-38.281 70.156,-74.687 127.031,-70.312c38.125,2.968 70.781,25.312 96.562,52.343c30.313,31.719 59.375,64.688 93.594,92.188c34.375,27.656 74.219,49.062 112.656,70.469c19.219,10.781 40,13.75 52.969,33.906c10.781,17.031 8.906,35.937 -5.781,49.844c-50.781,48.593 -132.031,31.093 -188.438,5c-7.031,-3.282 -14.062,-6.563 -22.031,-6.719c-13.437,-0.313 -13.75,7.656 -10,18.75c2.969,9.062 11.563,14.531 18.906,20c34.844,26.25 -31.093,42.344 -47.812,41.719c-35.469,-1.094 -70,-14.219 -102.344,-28.438c-5.156,-2.187 -12.187,-6.406 -18.125,-4.219c-20,7.344 11.719,32.657 14.688,40.782c8.75,24.218 -18.438,31.093 -36.719,32.656c-36.875,3.125 -67.813,-10.469 -98.906,-28.281c-9.844,-5.625 -37.657,-15.313 -33.75,5.468c7.031,37.657 -4.063,55.782 -43.75,54.688c-42.188,-1.094 -106.563,-16.094 -151.094,-46.563Z"/></clipPath><g clip-path="url(#_clip7)"><path d="M1378.75,864.219c-0,-0 19.219,-14.063 30,-3.282c10.937,10.782 97.031,67.5 122.812,86.563c44.375,33.125 95.938,15.156 95.938,15.156c-0,0 -0.156,35.469 -7.344,37.188c-7.187,1.718 -110.156,-3.594 -110.156,-3.594l-39.219,-41.406c-0.312,0.156 -57.344,-34.532 -92.031,-90.625Z" style="fill:#40c0e7;"/></g><clipPath id="_clip8"><path d="M1255.62,972.812c-23.594,-16.25 -41.563,-36.875 -47.5,-62.031c-7.5,-32.187 11.562,-51.094 37.187,-66.25c93.75,-55.625 178.594,-125.156 252.657,-205c35.625,-38.281 70.156,-74.687 127.031,-70.312c38.125,2.968 70.781,25.312 96.562,52.343c30.313,31.719 59.375,64.688 93.594,92.188c34.375,27.656 74.219,49.062 112.656,70.469c19.219,10.781 40,13.75 52.969,33.906c10.781,17.031 8.906,35.937 -5.781,49.844c-50.781,48.593 -132.031,31.093 -188.438,5c-7.031,-3.282 -14.062,-6.563 -22.031,-6.719c-13.437,-0.313 -13.75,7.656 -10,18.75c2.969,9.062 11.563,14.531 18.906,20c34.844,26.25 -31.093,42.344 -47.812,41.719c-35.469,-1.094 -70,-14.219 -102.344,-28.438c-5.156,-2.187 -12.187,-6.406 -18.125,-4.219c-20,7.344 11.719,32.657 14.688,40.782c8.75,24.218 -18.438,31.093 -36.719,32.656c-36.875,3.125 -67.813,-10.469 -98.906,-28.281c-9.844,-5.625 -37.657,-15.313 -33.75,5.468c7.031,37.657 -4.063,55.782 -43.75,54.688c-42.188,-1.094 -106.563,-16.094 -151.094,-46.563Z"/></clipPath><g clip-path="url(#_clip8)"><path d="M1255.31,833.906c0,0 -28.906,21.719 -19.843,47.031c9.062,25.313 67.031,69.219 119.062,101.094c62.188,37.969 101.406,13.438 101.406,13.438l-23.75,39.062l-122.656,-16.25l-122.812,-90.156l7.343,-75.781l61.25,-18.438Z" style="fill:#40c0e7;"/></g></g></g></g></g></svg>